<svg width="14" height="23" viewBox="0 0 14 23" fill="none" xmlns="http://www.w3.org/2000/svg">
<path d="M3.3864 2.04035L4.08586 0.540352L4.78531 1.04035L5.48477 2.04035L5.60747 3.5L4.78531 4.04035V5.04035L6.48179 5V14.5L7.58314 15.5404L5.48477 16.5404V19.5404L6.48179 19.5L8.23043 20.5L9.10475 21.5L0.798706 22V21L2.11019 20L3.3864 19.5404V17.0404L2.68694 16.0404L1.28803 15.5404L2.68694 15.0404V14.5404L2.54735 5.04035H4.08586V4.04035L3.3864 3.54035V2.04035Z" fill="white"/>
<path fill-rule="evenodd" clip-rule="evenodd" d="M4.3715 0.144759C3.95603 0.364402 3.07843 1.55835 2.73483 2.37168C2.33287 3.3236 2.56354 3.97017 3.43247 4.32724L4.13012 4.61386L3.17427 4.62157L2.21842 4.62929V9.6475V14.6657H1.3263C0.678358 14.6657 0.434171 14.7502 0.434171 14.9745C0.434171 15.3752 2.04611 16.5958 2.57527 16.5958C2.90892 16.5958 2.9831 16.8336 2.9831 17.9051C2.9831 19.1443 3.0192 19.4277 2.32258 19.7392C1.30174 20.1959 0 21.3597 0 21.816C0 22.1794 0.122182 22 4.6399 22C8.24281 22 9.35517 21.9431 9.3544 21.7587C9.35236 21.2365 8.27187 20.2185 7.19342 19.7231L6.05787 19.2014L6.04997 18.0042C6.04181 16.8181 6.05022 16.8038 6.9556 16.4786C7.458 16.298 8.1327 15.838 8.45437 15.4563C9.77446 13.8906 11.3976 13.317 12.3876 14.0666C13.3374 14.7858 13.1082 15.7321 11.6405 17.1532C10.2284 18.5203 9.93326 19.1072 10.2807 19.8557C10.6401 20.6293 11.2827 20.5088 11.197 19.6839C11.1254 18.9914 11.2722 18.7721 13.0735 16.8853C13.8958 16.0239 13.9822 15.821 13.8782 14.9971C13.7449 13.9406 13.0062 13.2083 11.885 13.0219C10.9941 12.8738 9.22135 13.4438 8.35522 14.1569C8.01519 14.4368 7.52784 14.6657 7.27193 14.6657C6.83326 14.6657 6.80649 14.3773 6.80649 9.6475V4.62929H5.90009H4.99369L5.66049 4.19503C6.56434 3.60635 6.5335 2.89222 5.5356 1.29991C5.08673 0.583463 4.70133 -0.00154101 4.67967 3.04955e-06C4.65775 0.00174012 4.51908 0.0667838 4.3715 0.144759ZM5.5356 3.04035C5.54477 3.45512 5.16396 3.56775 4.46989 3.56775C3.44777 3.56775 3.32619 3.27824 3.88415 2.17211L4.46989 0.843718L5.06226 1.90006C5.31664 2.26195 5.52973 2.77496 5.5356 3.04035ZM6.31404 9.92813L6.38235 14.6086L4.64449 14.6657L2.89898 14.5852V9.98526C2.89898 7.45512 2.9808 5.32335 3.08072 5.24769C3.18064 5.17203 4.1217 5.21623 4.75792 5.24769H6.24573L6.31404 9.92813ZM6.7912 15.679C6.12797 16.0857 3.63002 16.1426 2.5559 15.7755C1.88528 15.5464 1.93268 15.5294 3.49976 15.4377C4.40718 15.3847 5.6429 15.3412 6.24573 15.3412C7.32979 15.3412 7.3359 15.3451 6.7912 15.679ZM5.33312 18.2273V19.6658L5.8917 19.7231C6.36529 19.8933 6.99891 20.2809 7.32084 20.5403L8.57434 21.369H4.6399C-0.184805 21.5874 0.424719 21.6951 2.57527 20.2354L3.68012 19.6565V18.2273C3.68012 16.9268 4.04855 16.7888 4.51246 16.7888C4.97661 16.7888 5.33312 16.9175 5.33312 18.2273Z" fill="black"/>
</svg>
