<svg width="101" height="145" viewBox="0 0 101 145" fill="none" xmlns="http://www.w3.org/2000/svg">
<path fill-rule="evenodd" clip-rule="evenodd" d="M40.6109 0.733002C40.5864 1.24225 40.4917 2.74151 40.4007 4.06475C39.9864 10.0738 40.1434 13.3811 40.8079 12.6525C41.1461 12.282 41.3386 0.227365 41.0096 0.0252713C40.8151 -0.0946219 40.6355 0.223756 40.6109 0.733002ZM35.1828 5.26769C35.6073 10.4343 35.9842 12.408 36.5825 12.6052C37.0134 12.7472 37.0859 12.4805 36.8999 11.434C36.7674 10.6889 36.4456 8.45549 36.1847 6.47063C35.569 1.78598 34.8228 0.890186 35.1828 5.26769ZM44.1195 3.56352C43.4414 7.04524 43.0467 12.4204 43.4402 12.8121C43.7542 13.1249 43.8916 13.0836 43.929 12.6658C43.9576 12.3462 44.0204 11.6333 44.0687 11.0819C44.1171 10.5306 44.3655 9.00884 44.6208 7.70004C45.1894 4.78732 45.2184 2.66132 44.6901 2.66132C44.473 2.66132 44.2161 3.06751 44.1195 3.56352ZM24.5485 3.95167C24.5485 4.46733 24.7945 5.24483 25.0953 5.6795C25.3957 6.11456 25.8652 7.1924 26.1379 8.07455C26.82 10.2807 29.112 15.0913 29.4813 15.0917C30.2867 15.0917 29.8232 13.7733 26.0545 5.34147C25.0506 3.09558 24.5485 2.63245 24.5485 3.95167ZM55.0631 3.76161C54.7216 4.14895 54.3109 4.91683 54.151 5.46818C53.9912 6.01953 53.636 6.83151 53.3618 7.27259C53.0875 7.71367 52.7396 8.57538 52.5878 9.18808C52.4364 9.80037 51.8566 11.294 51.2992 12.507C50.3582 14.556 50.2958 15.4927 51.1003 15.4927C51.2819 15.4927 51.6548 14.9061 51.929 14.1895C52.2033 13.4726 52.6595 12.345 52.9426 11.6834C54.7603 7.43659 56.1205 3.49215 55.8576 3.23031C55.7621 3.13528 55.4046 3.37426 55.0631 3.76161ZM30.3905 4.86671C30.5963 6.16268 31.4645 9.61432 32.4329 12.9866C32.5119 13.2624 32.772 13.4878 33.0104 13.4878C33.5439 13.4878 33.2129 11.4047 32.1551 8.10864C31.7367 6.80425 31.394 5.53033 31.394 5.27812C31.394 5.0259 31.1109 4.46934 30.765 4.04109C30.1759 3.31211 30.1522 3.36464 30.3905 4.86671ZM48.9412 3.93924C48.2248 6.22724 47.1359 10.3473 46.9209 11.5831C46.7119 12.7845 46.7844 13.0868 47.2817 13.0868C47.6618 13.0868 47.9039 12.7295 47.9039 12.1686C47.9039 11.6637 48.195 10.1749 48.551 8.86048C49.7183 4.55154 49.8391 3.86346 49.4699 3.6361C49.2697 3.513 49.0322 3.64933 48.9412 3.93924ZM20.5217 7.98153C20.5217 8.26101 20.9812 9.16322 21.5429 9.98643C22.1046 10.8096 22.4578 11.4829 22.3277 11.4829C22.1976 11.4829 22.5323 12.0691 23.0711 12.7861C23.6098 13.503 24.3488 14.6759 24.7128 15.3924C25.3426 16.6331 26.1592 17.1455 26.1592 16.3007C26.1592 15.9233 23.8229 11.9011 23.3606 11.4829C23.239 11.3726 23.0868 11.0354 23.0223 10.7335C22.9043 10.1773 20.9574 7.47308 20.6751 7.47308C20.591 7.47308 20.5217 7.70204 20.5217 7.98153ZM57.8593 9.13394C57.244 10.0077 56.847 10.8934 56.977 11.1028C57.1067 11.3117 57.0519 11.4829 56.8546 11.4829C56.6573 11.4829 56.257 11.928 55.9647 12.4717C55.6723 13.0154 55.2515 13.3487 55.0293 13.2115C54.8005 13.0712 54.7498 13.1638 54.9117 13.4248C55.0695 13.6791 54.8807 14.4233 54.4917 15.0785C54.1031 15.7337 53.9364 16.4109 54.1208 16.583C54.3056 16.7554 54.5384 16.6696 54.6374 16.3925C54.7369 16.1154 55.0119 16.008 55.2487 16.1535C55.4855 16.2995 55.5664 16.2365 55.4283 16.0144C55.2902 15.7918 55.7154 14.7653 56.3726 13.7332C57.0302 12.7007 57.5681 11.7684 57.5681 11.6609C57.5681 11.5535 58.0502 10.7407 58.6393 9.85411C60.0704 7.70044 59.3423 7.02759 57.8593 9.13394ZM60.5882 13.1975C57.6946 16.7345 56.7153 18.223 57.1188 18.4712C57.4018 18.6456 62.6238 12.1517 63.1384 10.9849C63.5789 9.98763 62.323 11.0775 60.5882 13.1975ZM16.747 11.5831C16.9117 11.859 17.8894 13.0768 18.9194 14.2898C19.9499 15.5027 21.1986 17.0838 21.6947 17.8031C22.1908 18.5225 22.7634 19.0081 22.9676 18.883C23.6014 18.4928 17.9486 11.1609 16.9745 11.1096C16.6588 11.0931 16.5674 11.2828 16.747 11.5831ZM12.4681 12.0046C12.4681 12.3598 14.3744 14.5857 16.7039 16.9511C19.7941 20.0883 21.0601 21.1317 21.3842 20.8089C21.7088 20.4857 20.7577 19.3237 17.8692 16.5116C12.2511 11.043 12.4681 11.2243 12.4681 12.0046ZM68.1759 12.7576C67.6983 12.9878 65.9012 14.6895 64.1825 16.5397C62.4639 18.3898 60.8355 19.9035 60.5641 19.9035C59.9021 19.9035 59.5054 21.0122 60.0478 21.3462C60.2854 21.4922 62.5847 19.5149 65.1623 16.9483C69.638 12.4918 70.1204 11.8209 68.1759 12.7576ZM10.0444 17.7073C9.62602 18.2093 9.6389 18.2783 10.1173 18.0955C10.458 17.9655 11.395 18.5321 12.3771 19.462C14.0035 21.003 17.4106 23.5123 17.8761 23.5123C18.6629 23.5123 17.6703 22.4609 14.5149 19.952C12.5398 18.3814 10.8405 17.0966 10.7386 17.0966C10.6367 17.0966 10.3243 17.3713 10.0444 17.7073ZM65.8525 19.7122C62.0198 22.8086 61.785 23.0335 62.0798 23.3267C62.4551 23.7004 64.5035 22.2733 67.4253 19.6027C71.0047 16.3315 69.9453 16.4053 65.8525 19.7122ZM39.423 19.9624C38.972 21.0471 38.9906 21.278 39.5628 21.6947C40.1426 22.1169 40.054 22.2552 38.8283 22.8375C36.8628 23.7705 36.9333 25.1279 39.0449 27.0157C39.9546 27.8289 40.6556 28.8225 40.6556 29.2985C40.6556 30.3542 39.5833 32.3202 38.1389 33.9129C30.4961 42.3395 29.3605 50.8054 35.2195 55.6766C36.7207 56.9244 38.8657 58.0411 39.1738 57.7348C39.5563 57.3535 39.3336 59.3624 38.935 59.8889C38.7312 60.1575 37.4495 60.593 36.0868 60.8564C34.1125 61.2382 33.3015 61.6387 32.0987 62.8268C31.2684 63.6468 30.5887 64.7002 30.5887 65.167C30.5887 65.6341 30.331 66.0162 30.0161 66.0162C29.7008 66.0162 29.228 66.6931 28.9647 67.5199C28.4456 69.1527 26.9319 72.8618 25.7159 75.4834C24.7132 77.6439 24.7398 78.5312 25.7698 77.2994C26.2055 76.779 26.5619 76.1322 26.5619 75.8623C26.5619 75.592 27.1913 74.0832 27.9608 72.5089C28.7303 70.9343 29.4749 69.1904 29.6154 68.633C29.9057 67.4806 30.0152 67.4297 30.7445 68.1081C31.307 68.631 31.1134 70.0381 30.0664 73.0334C29.6694 74.1706 29.617 74.9874 29.8864 75.8403C30.0954 76.5019 30.4139 78.117 30.5947 79.4294C30.8021 80.9399 31.1794 82.0025 31.6223 82.3249C32.1877 82.7371 32.3657 83.7003 32.5505 87.3568C32.7579 91.4492 32.8388 96.7221 32.7434 99.8991C32.7237 100.561 32.745 104.53 32.7909 108.721C32.8368 112.911 32.7881 118.456 32.683 121.044L32.4921 125.748L31.1363 126.544C30.0221 127.199 28.7573 127.383 24.0435 127.578C14.4517 127.975 9.80561 128.476 8.14899 129.291C7.31303 129.702 5.72325 130.083 4.61588 130.138C0.996608 130.317 -0.499344 133.097 2.19981 134.628C2.86423 135.005 6.10378 135.777 9.3985 136.344C15.8208 137.448 16.1273 137.586 19.9986 141.124C22.788 143.673 25.0321 143.978 41.0583 143.994C52.5455 144.005 54.623 144.096 55.0522 144.608C55.4968 145.138 55.5306 145.134 55.3365 144.574C55.1638 144.074 55.4335 143.926 56.5913 143.883C57.9926 143.83 61.336 142.215 62.199 141.174C62.4204 140.907 63.6889 139.969 65.0177 139.089C67.0182 137.765 67.9955 137.41 70.6995 137.025C72.4958 136.77 75.3951 136.112 77.1424 135.562C78.89 135.013 81.5163 134.484 82.9788 134.388C88.2595 134.041 94.4797 131.257 97.4164 127.926C100.773 124.119 101.932 118.973 100.207 115.533C98.3692 111.87 93.6478 108.921 89.6186 108.921C86.1571 108.921 80.9167 111.187 78.6323 113.67C76.3906 116.108 74.165 119.991 73.6846 122.301C73.0669 125.275 73.4349 127.955 74.57 128.747C75.8695 129.653 76.4832 129.008 77.9062 125.241C79.4678 121.108 80.6871 118.975 82.9454 116.423C87.004 111.837 92.8605 111.276 94.9863 115.271C95.7908 116.782 95.5859 120.653 94.5969 122.629C93.624 124.573 91.1346 127.101 90.5491 126.741C90.3377 126.611 90.2149 126.714 90.2757 126.97C90.5709 128.211 82.1972 131.46 81.0814 130.538C80.8309 130.331 79.198 129.993 77.4528 129.787C66.3256 128.47 63.5258 128.183 57.5637 127.75C53.9118 127.485 50.8615 127.213 50.7854 127.146C50.5607 126.948 50.6344 112.986 50.9401 97.8942C51.1559 87.2201 51.3568 83.6004 51.7788 82.7772C52.5 81.3686 52.4791 80.1512 51.6959 77.9959C51.228 76.7084 51.116 75.4112 51.2751 73.124C51.3947 71.4094 51.6129 69.8127 51.7599 69.5761C51.9991 69.1904 55.1521 75.5227 55.1521 76.3896C55.1521 76.5849 55.4239 76.969 55.7561 77.2437C56.2458 77.6483 56.3601 77.633 56.3601 77.1639C56.3601 76.1582 55.0965 72.8405 53.6896 70.1532C52.9438 68.7281 52.3333 67.2248 52.3333 66.8126C52.3333 66.4008 52.1521 65.9521 51.9306 65.8157C51.3053 65.4308 51.4511 64.3277 52.3575 62.5923C53.6291 60.1571 53.7008 57.8246 52.5443 56.4873C51.72 55.5334 51.3081 55.3931 49.3877 55.4107C47.1621 55.4312 46.3725 55.8009 42.971 58.4153L41.8637 59.2665V58.4136C41.8637 57.8976 42.0839 57.6069 42.421 57.6782C43.3153 57.8675 46.2468 55.2744 46.9008 53.7154C47.7706 51.6427 47.6232 48.9673 46.4627 45.7667C45.017 41.7802 44.9325 41.2878 45.4697 39.9962C45.7334 39.3619 45.9658 37.6942 45.9859 36.2903C46.0334 32.9686 44.9168 30.4428 42.2728 27.8918C40.59 26.2682 40.2964 25.7722 40.4624 24.8335C41.0744 21.3655 41.1187 20.7054 40.7374 20.7054C40.5123 20.7054 40.4177 20.365 40.5272 19.9488C40.8707 18.64 39.9687 18.6512 39.423 19.9624ZM70.0359 21.8282C69.0308 22.4236 67.644 23.317 66.9538 23.813C66.2636 24.3091 65.5223 24.7152 65.3068 24.7152C64.7749 24.7152 63.8379 25.8793 64.133 26.1736C64.4246 26.4635 72.8699 21.4982 72.8699 21.0366C72.8699 20.4504 71.9079 20.7195 70.0359 21.8282ZM7.43464 21.7107C7.87758 22.0732 9.9248 23.376 11.9841 24.6058C14.7155 26.237 15.8486 26.7222 16.1728 26.3994C16.4973 26.0762 16.3012 25.8203 15.4487 25.453C14.8061 25.1764 13.0814 24.1847 11.6161 23.2497C8.84482 21.4813 5.77157 20.3502 7.43464 21.7107ZM3.20651 25.1134C3.20651 25.7843 4.77092 26.7033 6.33774 26.9527C8.80938 27.3465 8.4208 26.6524 5.62258 25.6764C4.29374 25.2129 3.20651 24.9594 3.20651 25.1134ZM73.8766 25.6844C69.276 27.3814 66.0333 28.9275 66.0288 29.4268C66.0228 30.0944 66.2849 30.0631 68.2126 29.1669C71.3897 27.6897 76.734 25.5172 77.1915 25.5172C77.4464 25.5172 77.7665 25.3368 77.9034 25.1162C78.3069 24.4662 76.48 24.7241 73.8766 25.6844ZM7.85785 27.4888C7.73262 27.6909 8.58227 28.1701 9.74682 28.5538C10.9114 28.9372 12.5515 29.606 13.3915 30.0399C14.2315 30.4737 15.0243 30.7243 15.1528 30.5964C15.7757 29.9757 14.6869 29.1605 11.9394 28.1889C8.62656 27.0181 8.1961 26.9439 7.85785 27.4888ZM42.2664 30.5724C42.2664 30.9637 42.4906 31.1309 42.8369 30.9986C43.5006 30.7452 43.8771 31.5223 43.8771 33.1451C43.8771 34.3713 44.4803 35.0742 44.8177 34.2409C45.4318 32.7244 44.9607 38.2315 44.3003 40.2901C43.0343 44.2354 42.9537 45.2386 43.6975 47.8021C44.0764 49.1085 44.5765 50.2986 44.8089 50.4466C45.1008 50.6326 45.0807 51.2172 44.7444 52.3344C44.1444 54.3293 43.3302 54.9941 43.6036 53.2663C43.7245 52.5012 43.5138 51.5998 43.0282 50.8046C42.0272 49.1646 41.736 43.7101 42.5136 41.1554C42.8156 40.163 43.0528 38.8999 43.0399 38.3486L43.0173 37.3461L42.5712 38.3486C41.018 41.8399 40.081 43.6552 38.6692 45.9059C37.791 47.3057 36.9977 48.659 36.9059 48.9132C36.8141 49.1674 36.6349 49.2813 36.5076 49.1662C36.38 49.0516 36.7319 47.6982 37.2888 46.1589C37.8461 44.6199 38.3459 42.9795 38.3998 42.5136C38.4538 42.0476 38.9285 40.965 39.4548 40.1077C41.0027 37.5875 41.8649 35.5281 41.8468 34.3953C41.8335 33.5621 41.5709 33.8772 40.615 35.8745C39.9469 37.2703 38.7981 39.2552 38.0628 40.2853C35.472 43.913 34.8824 45.4965 34.8973 48.7909C34.9046 50.4546 35.0314 52.259 35.1788 52.8007C35.3447 53.4126 35.1277 53.2069 34.6066 52.259C34.1443 51.4189 33.6611 49.8447 33.5322 48.7604C33.3933 47.594 33.1328 46.8907 32.894 47.0378C32.2481 47.4352 32.9435 44.4351 34.0932 41.8652C34.6585 40.6013 35.2698 39.659 35.4518 39.7713C35.8472 40.0147 36.7041 38.5575 36.3647 38.2191C36.235 38.09 37.1503 36.8485 38.399 35.4599C39.6477 34.0713 40.8759 32.2589 41.1288 31.4317C41.5955 29.9047 42.2664 29.3979 42.2664 30.5724ZM73.6753 31.1758C68.5154 32.449 67.0975 32.9374 66.9067 33.5079C66.7673 33.9234 66.9586 33.9855 67.6818 33.7602C68.2097 33.5954 70.0009 33.1378 71.6619 32.7433C75.3698 31.8623 76.8967 31.2777 76.8967 30.74C76.8967 30.5138 76.8512 30.3518 76.7961 30.3799C76.7409 30.408 75.3363 30.766 73.6753 31.1758ZM3.20651 30.92C3.20651 31.396 5.74137 32.3355 8.00604 32.6988C9.37595 32.9181 11.0233 33.3596 11.6672 33.6792C12.665 34.1752 12.9058 34.1784 13.3021 33.7028C13.8336 33.0653 13.9625 33.1246 10.052 32.204C3.45617 30.6514 3.20651 30.6044 3.20651 30.92ZM73.0713 35.5417C72.4069 35.7101 71.0132 35.8693 69.9743 35.8954C68.1369 35.9415 67.2103 36.4359 68.0237 36.9363C68.5581 37.2651 78.1048 35.8653 78.1048 35.4583C78.1048 35.0678 74.7203 35.1239 73.0713 35.5417ZM2.21592 35.917C2.00733 36.2531 2.72652 36.407 7.03196 36.9484C7.69638 37.0322 9.21528 37.227 10.4072 37.3822C12.173 37.612 12.5366 37.5603 12.3703 37.1039C12.2579 36.796 11.9579 36.5907 11.703 36.6476C11.4485 36.7046 9.93084 36.4792 8.3306 36.1468C5.02058 35.4591 2.55739 35.3665 2.21592 35.917ZM0.399438 39.5339C0.0736709 39.74 -0.0853929 40.0163 0.0462831 40.1474C0.177959 40.2781 3.02691 40.4786 6.3768 40.5921C11.7083 40.7729 12.4681 40.7212 12.4681 40.175C12.4681 39.6429 11.7038 39.5515 7.26632 39.5515C4.40528 39.5515 1.82291 39.4633 1.52814 39.3554C1.23298 39.2472 0.725205 39.3278 0.399438 39.5339ZM67.8912 40.232C67.137 40.983 68.016 41.1943 71.618 41.1274C73.8082 41.0869 75.7563 41.1246 75.9468 41.2108C76.5867 41.5011 81.1301 40.9586 80.6513 40.6486C80.0622 40.2681 68.2428 39.8819 67.8912 40.232ZM67.8538 43.5337C67.7261 43.739 67.8063 44.0201 68.0314 44.1588C68.2565 44.2971 68.4405 44.3035 68.4405 44.1724C68.4405 44.0413 68.7654 44.1075 69.1629 44.3192C70.2739 44.911 77.7021 45.3289 77.7021 44.7992C77.7021 44.5594 77.6566 44.3585 77.6014 44.3521C77.5463 44.346 76.1417 44.2398 74.4807 44.1163C72.8196 43.9924 70.8263 43.7277 70.0512 43.5281C68.2891 43.0737 68.1389 43.0741 67.8538 43.5337ZM6.83062 44.0513C2.81752 44.4495 2.42008 44.5614 3.03215 45.1215C3.65107 45.6877 12.4681 44.5718 12.4681 43.927C12.4681 43.5152 12.1701 43.5216 6.83062 44.0513ZM46.2927 50.4546C46.2931 51.7097 46.0926 52.8601 45.8474 53.0108C45.5357 53.2025 45.4882 52.8929 45.6891 51.9819C45.88 51.1166 45.8123 50.5777 45.4874 50.3776C45.2007 50.2012 44.9341 48.8523 44.8443 47.1196L44.6901 44.1628L45.4914 46.1677C45.9609 47.3434 46.2927 49.1165 46.2927 50.4546ZM40.3987 45.7667C40.2711 46.0975 39.9828 46.3682 39.7581 46.3682C39.5221 46.3682 39.5612 46.1136 39.8503 45.7667C40.1261 45.4359 40.4144 45.1653 40.4909 45.1653C40.5675 45.1653 40.526 45.4359 40.3987 45.7667ZM39.1561 48.0724C38.7626 48.7889 38.3265 49.8266 38.1868 50.378L37.9323 51.3804L37.886 50.378C37.8433 49.4509 39.1569 46.7692 39.6534 46.7692C39.773 46.7692 39.5491 47.3558 39.1561 48.0724ZM42.0082 51.1178C42.4818 51.6383 42.6763 52.3633 42.5808 53.2474L42.4359 54.5883L42.0235 53.1849C41.6982 52.0774 41.4042 51.7814 40.6299 51.7814C39.7528 51.7814 39.6236 51.9939 39.4101 53.7863C39.2789 54.889 39.1371 55.4304 39.0953 54.9893C39.0534 54.5482 38.7534 53.8369 38.428 53.409C38.1031 52.9808 37.8397 52.3492 37.8429 52.0056C37.8486 51.4554 37.8961 51.4526 38.2396 51.9819C38.4542 52.3127 38.6463 52.4932 38.666 52.3829C38.6857 52.2726 38.7751 51.7313 38.8641 51.18C38.9535 50.6286 39.4383 49.4004 39.9417 48.4505L40.857 46.7231L41.074 48.5259C41.1936 49.5171 41.614 50.6835 42.0082 51.1178ZM67.2324 47.1361C67.2324 47.367 67.6399 47.6437 68.1385 47.7512C71.4187 48.4585 74.7754 49.323 75.3078 49.5981C75.652 49.7757 76.1904 49.7629 76.5045 49.5696C77.1645 49.1634 77.3224 49.2424 73.2726 47.9501C70.0943 46.9352 67.2324 46.5498 67.2324 47.1361ZM8.44133 48.0291C4.9038 49.0884 3.60919 49.6133 3.60919 49.9882C3.60919 50.3632 4.59052 50.1699 7.83732 49.1562C9.16616 48.7416 10.9331 48.2969 11.7634 48.169C12.5942 48.0407 13.2735 47.7636 13.2735 47.5531C13.2735 46.9697 11.3451 47.1593 8.44133 48.0291ZM36.5109 51.6764C36.4146 52.1752 36.3321 51.8616 36.3276 50.9795C36.3232 50.0973 36.4021 49.6891 36.5028 50.0725C36.6035 50.4558 36.6071 51.1776 36.5109 51.6764ZM12.0654 51.6371C8.13328 53.4643 7.21679 53.8782 5.01856 54.8193C3.9112 55.2932 3.24275 55.7696 3.53268 55.8778C4.39522 56.1994 7.72497 55.2162 9.34011 54.1629C10.1668 53.6239 11.8403 52.8677 13.0593 52.4823C14.6281 51.9863 15.2772 51.5765 15.2812 51.0797C15.2885 50.1739 15.1717 50.1939 12.0654 51.6371ZM66.26 50.724C65.9475 51.2269 66.088 51.3099 69.2861 52.5084C70.7293 53.0493 72.9674 53.9736 74.2592 54.5618C75.551 55.1505 76.9897 55.5775 77.4569 55.5109C78.3677 55.3814 72.4673 52.3292 69.4472 51.3676C68.5613 51.0857 67.5377 50.7353 67.1724 50.5889C66.8072 50.443 66.3965 50.5035 66.26 50.724ZM37.8111 54.5883C37.8111 54.8088 37.5453 54.6388 37.22 54.211C36.895 53.7827 36.6288 53.2522 36.6288 53.0317C36.6288 52.8111 36.895 52.9808 37.22 53.409C37.5453 53.8369 37.8111 54.3678 37.8111 54.5883ZM14.6402 54.9011C13.9991 55.4287 12.1625 56.5667 10.5582 57.43C8.95395 58.293 7.64 59.1346 7.6388 59.2998C7.63396 59.8271 8.72683 59.6226 9.24669 58.9991C9.52253 58.6683 9.89058 58.3976 10.0653 58.3976C10.3476 58.3976 16.0306 55.3205 16.4679 54.9307C16.5642 54.8453 16.4542 54.5879 16.2239 54.3585C15.934 54.0698 15.4463 54.237 14.6402 54.9011ZM64.011 54.5334C64.011 54.8337 65.1437 55.6601 66.5278 56.3694C70.0391 58.1694 70.8582 58.6398 71.3736 59.1531C71.9752 59.7521 72.4673 59.7188 72.4673 59.0789C72.4673 58.7922 71.6108 58.143 70.5638 57.6365C69.5168 57.1301 67.731 56.1016 66.5958 55.3514C64.3005 53.834 64.011 53.7422 64.011 54.5334ZM51.4933 57.1602C52.1078 57.7721 52.1988 58.1991 51.9423 59.2653C51.4748 61.2093 51.0838 62.0281 50.727 61.8087C50.5547 61.7025 50.1818 62.1724 49.8987 62.8529C49.4638 63.8983 49.488 64.3798 50.0554 65.9557C50.94 68.4133 50.9078 68.8865 49.6994 71.1873C48.4926 73.4857 48.5393 75.224 49.8649 77.3596C50.3614 78.1599 50.8567 79.4988 50.9654 80.3348L51.1631 81.855L50.0368 79.8954C49.4175 78.8179 48.6867 77.5549 48.4132 77.0885C48.1394 76.6226 47.9131 75.9148 47.9099 75.5159C47.9067 75.1169 47.7299 74.8976 47.5177 75.0283C47.2922 75.167 47.235 76.3716 47.3804 77.9217C47.5644 79.8853 47.5076 80.5029 47.1625 80.2903C46.5549 79.9166 46.5299 81.7299 47.1343 82.3317C47.783 82.9777 48.1205 92.0868 47.5555 93.7003C47.1798 94.7742 47.208 95.1944 47.7082 95.9542C48.3818 96.9779 48.1229 99.0346 47.3526 98.7828C46.6624 98.557 46.567 95.5504 47.1045 90.9488C47.564 87.012 47.5483 86.7674 46.7848 85.9365C45.2224 84.2364 43.9479 77.9558 44.6434 75.3835C44.9985 74.0703 44.9438 73.4051 44.3414 71.7017C43.5211 69.3817 42.783 68.36 43.2763 70.2265C43.7297 71.9431 43.8662 85.2224 43.4329 85.4891C43.2344 85.6114 43.0717 86.1298 43.0717 86.6415C43.0717 87.7534 42.0481 88.8008 41.7566 87.9868C41.2673 86.619 41.1086 88.6997 40.9331 98.7984C40.8284 104.808 40.588 109.769 40.3991 109.824C39.6179 110.05 39.14 107.127 39.5301 104.51C39.8632 102.276 39.7536 95.6162 39.2281 86.1623C39.1532 84.8078 39.2579 84.1442 39.5209 84.3062C39.7726 84.4609 39.7601 84.2408 39.4879 83.734C39.2442 83.2809 39.0449 82.2692 39.0449 81.4861C39.0449 79.3633 38.1534 76.3888 37.5828 76.6069C36.9961 76.8311 36.6288 75.9826 36.6288 74.4039C36.6288 73.7604 36.4476 73.2339 36.2262 73.2339C36.0047 73.2339 35.8223 73.9107 35.8211 74.7376C35.8195 75.5648 35.5835 76.6923 35.2968 77.2437C34.9903 77.8323 34.8917 78.66 35.0576 79.2486C35.5662 81.0498 35.4422 83.1798 34.791 83.8282C34.1512 84.4654 34.3606 85.4674 35.0459 85.0456C35.2585 84.9148 35.4208 85.6936 35.4208 86.8436V88.8721L34.5949 88.0497C33.4771 86.9366 33.0583 85.6751 33.4046 84.4649C33.8383 82.9496 33.3027 77.941 32.685 77.7377C32.3117 77.6146 32.2356 77.8488 32.4156 78.5641C32.5562 79.1211 32.4748 79.6804 32.232 79.83C31.9582 79.9984 31.7967 79.6656 31.7967 78.933C31.7967 78.2923 31.4995 77.1747 31.1363 76.4493C30.5222 75.2244 30.5238 74.979 31.1568 72.9797C31.568 71.6801 32.0689 70.828 32.4213 70.828C33.1964 70.828 33.1815 69.0673 32.4007 68.4221C31.5503 67.7192 31.6139 64.7131 32.5014 63.6833C33.5222 62.4984 39.4476 60.6796 39.4476 61.5509C39.4476 62.0686 37.8047 63.237 37.4141 62.9965C37.2538 62.8978 36.9007 63.0839 36.6288 63.4099C36.357 63.7359 35.9463 63.8862 35.7156 63.7443C35.4816 63.6003 35.4156 63.6789 35.5666 63.9215C35.7152 64.1609 35.6495 64.4721 35.4208 64.6128C35.1921 64.7535 35.1212 65.0563 35.2634 65.2852C35.8166 66.1762 43.4905 64.0262 46.3825 62.17C48.6669 60.7036 49.9909 57.5066 47.9788 58.315C46.7558 58.8062 45.3243 59.9723 45.603 60.2497C45.7503 60.3969 46.1474 60.2886 46.4848 60.0096C46.8227 59.7301 47.0985 59.6824 47.0985 59.9033C47.0985 60.4971 46.1558 61.1692 45.0972 61.33C44.585 61.4078 43.9576 61.7554 43.7027 62.1023C43.1096 62.9102 41.8637 62.2979 41.8637 61.1985C41.8637 60.4238 43.333 59.3291 44.0784 59.5488C44.2999 59.6142 44.3462 59.5332 44.1811 59.3688C43.8674 59.0564 46.0302 57.4349 47.597 56.8081C49.1042 56.205 50.6767 56.347 51.4933 57.1602ZM62.2626 57.0643C61.7407 57.584 62.0298 57.9204 64.313 59.4514C65.5867 60.3055 66.7653 61.2157 66.9329 61.4739C67.3762 62.1584 70.054 63.7411 70.3202 63.476C70.6166 63.1809 68.3885 61.2337 67.7358 61.2173C67.4591 61.2101 67.2324 60.9458 67.2324 60.6299C67.2324 60.3139 66.9151 59.955 66.5278 59.8323C66.1404 59.7096 65.368 59.2016 64.8115 58.7028C63.0538 57.1269 62.5348 56.7933 62.2626 57.0643ZM17.0764 57.9052C16.6459 58.2982 15.694 59.0408 14.9615 59.5552C14.2286 60.0697 13.0556 61.012 12.355 61.6496C11.6539 62.2867 10.9593 62.8084 10.8107 62.8084C10.6625 62.8084 10.4366 63.0791 10.309 63.4099C9.9091 64.4476 10.9963 64.0647 12.5913 62.6059C13.4341 61.8352 14.2306 61.2045 14.3619 61.2045C14.4928 61.2045 15.4339 60.5392 16.4534 59.7265C17.473 58.9137 18.3855 58.1887 18.4813 58.1157C18.5776 58.0427 18.4769 57.805 18.2578 57.5868C17.9953 57.3254 17.5926 57.4341 17.0764 57.9052ZM15.5313 64.0334C13.1188 66.4473 11.3773 68.4221 11.6607 68.4221C12.4613 68.4221 20.9119 60.6459 20.9208 59.9013C20.9316 58.9758 19.4538 60.109 15.5313 64.0334ZM59.5815 60.2866C59.5815 60.4434 60.9511 61.8873 62.6246 63.4957C64.2985 65.1036 65.5533 66.6041 65.4135 66.8294C65.2738 67.0548 65.399 67.1895 65.6926 67.129C65.9878 67.068 66.1657 67.2873 66.0916 67.6202C66.0176 67.951 66.0949 68.0845 66.2628 67.9173C66.4311 67.7497 66.9767 67.9947 67.4757 68.4614C69.3227 70.1892 69.2474 68.933 67.3766 66.8078C63.1618 62.0193 59.5815 59.0243 59.5815 60.2866ZM20.6445 64.5126C17.614 68.38 16.7852 69.6471 17.0897 69.9491C17.2435 70.1014 17.7223 69.7754 18.1535 69.2241C18.5844 68.6727 19.2939 67.8355 19.7296 67.3631C20.1653 66.8912 20.5217 66.3322 20.5217 66.1213C20.5217 65.9108 21.1559 65.088 21.9311 64.2932C23.309 62.8806 23.7077 62.0064 22.9744 62.0064C22.7731 62.0064 21.7249 63.1344 20.6445 64.5126ZM47.7025 62.4074C47.5656 62.628 47.6349 62.8084 47.8563 62.8084C48.0778 62.8084 48.371 62.628 48.5079 62.4074C48.6448 62.1869 48.5755 62.0064 48.3541 62.0064C48.1326 62.0064 47.8394 62.1869 47.7025 62.4074ZM57.1655 62.3789C57.1655 62.5834 57.3986 62.9896 57.6833 63.2811C57.9684 63.5723 58.7383 64.529 59.3947 65.4067C60.0511 66.2845 60.8979 67.3671 61.2768 67.8126C61.6553 68.2581 62.2147 68.963 62.5199 69.3797C62.8251 69.7959 63.281 70.0665 63.5334 69.9811C63.9647 69.8348 62.0979 67.0853 59.1398 63.5101C57.9346 62.0533 57.1655 61.6127 57.1655 62.3789ZM33.8504 64.1296C33.341 64.9745 33.3498 64.9829 34.0432 64.3217C34.4423 63.9408 34.6823 63.543 34.5764 63.4375C34.4705 63.3321 34.1439 63.6436 33.8504 64.1296ZM24.904 65.2492C23.7931 66.6995 20.9244 72.2334 20.9244 72.9259C20.9244 73.7351 22.0684 72.3706 23.117 70.3099C24.4567 67.6787 25.0482 66.6658 25.705 65.8779C25.9913 65.5339 26.1652 64.9424 26.0919 64.5627C25.9869 64.0226 25.7291 64.1717 24.904 65.2492ZM54.3467 64.4404C54.3467 64.6762 54.8658 65.6237 55.5004 66.5455C56.135 67.4674 57.1284 69.1563 57.7075 70.2983C58.7448 72.3433 59.5815 73.3008 59.5815 72.4424C59.5815 71.8301 57.7026 68.1916 56.2115 65.916C55.0035 64.0723 54.3467 63.5526 54.3467 64.4404ZM46.5766 65.5912C45.3416 67.0528 45.2063 68.627 46.0431 71.7904C46.4127 73.1866 46.6407 73.5547 46.8303 73.0619C47.0755 72.4263 46.9652 71.4764 46.4139 69.4747C46.2879 69.0172 46.3705 68.8235 46.6249 68.9799C46.8549 69.1214 47.1565 69.0537 47.2958 68.8295C47.4347 68.6054 47.3566 68.4221 47.1223 68.4221C46.4961 68.4221 46.6024 67.3327 47.3377 66.2155C48.3649 64.6545 47.7762 64.1717 46.5766 65.5912ZM42.0413 67.0516C41.3261 67.6318 41.3225 67.6659 41.9974 67.4525C42.4029 67.3242 43.0931 67.2192 43.5312 67.2192C43.9689 67.2192 44.2153 67.0387 44.0784 66.8182C43.7172 66.2364 42.9356 66.3258 42.0413 67.0516ZM33.5037 67.3066C33.6921 67.8692 35.3363 68.4819 35.5843 68.0821C35.6886 67.9145 35.2299 67.5728 34.5655 67.323C33.7082 67.001 33.3998 66.9962 33.5037 67.3066ZM37.6722 69.3243C38.1268 72.0446 38.271 72.4319 38.8275 72.4319C39.506 72.4319 39.7935 72.0229 40.2642 70.3873C40.5175 69.5084 40.4841 69.2141 40.143 69.3275C39.8833 69.4137 39.5483 69.9218 39.3981 70.4567C39.2297 71.057 39.1098 71.168 39.0852 70.7466C39.0292 69.7991 38.1796 68.0211 37.7821 68.0211C37.6021 68.0211 37.5522 68.6078 37.6722 69.3243ZM41.2222 78.7939C41.3164 80.1977 41.5894 81.5418 41.8298 81.7812C42.483 82.4316 42.3332 79.3601 41.6285 77.6447C41.0543 76.2481 41.0523 76.2541 41.2222 78.7939ZM38.0845 85.1707C38.151 88.4563 38.3898 91.9412 38.6153 92.9152C39.1621 95.2778 39.1496 98.1063 38.5661 104.004C38.0032 109.694 38.2609 111.057 39.9352 111.251C41.3571 111.416 42.272 109.74 41.8387 107.766C41.6748 107.02 41.6994 103.23 41.8935 99.3449C42.3868 89.4467 42.3755 89.5402 43.1591 88.8721C43.5469 88.5413 44.1271 87.2782 44.4485 86.0653C44.943 84.1971 45.036 84.0612 45.0585 85.1755C45.0754 86.0027 45.3283 86.5845 45.7399 86.7417C46.3177 86.9627 46.3588 87.5385 46.0862 91.6409C45.7044 97.3857 45.7608 98.4395 46.5106 99.5787C47.022 100.356 47.2402 100.419 48.0891 100.034C49.2556 99.5045 49.4469 98.8477 49.0628 96.6912C48.9053 95.8091 48.8071 91.9918 48.8437 88.2085C48.8804 84.4253 48.7974 81.3995 48.6589 81.4849C48.5204 81.5699 48.4072 81.1761 48.4072 80.6087C48.4072 79.7558 48.497 79.6708 48.9287 80.1151C49.3761 80.5754 49.6628 87.3404 49.5758 95.3881C49.5718 95.7738 49.5834 96.992 49.602 98.0947C49.7735 108.343 49.4481 128.175 49.1119 127.968C48.8904 127.831 48.7064 127.956 48.7032 128.245C48.6887 129.46 48.0814 129.835 46.9564 129.325C46.0672 128.922 45.888 128.588 45.9219 127.4C46.0302 123.621 45.7797 119.983 45.4781 120.951C45.3062 121.502 45.1475 122.695 45.1254 123.601C45.1032 124.508 44.972 126.07 44.8342 127.074L44.583 128.897L42.7922 129.039C41.8073 129.117 40.9085 129.088 40.795 128.975C40.6814 128.862 40.4676 128.754 40.3202 128.735C40.1724 128.716 39.7371 128.562 39.3526 128.394C38.968 128.225 37.8353 128.151 36.8358 128.23C35.8001 128.313 35.0048 128.201 34.9871 127.971C34.8675 126.4 34.2128 124.986 34.2128 126.297C34.2128 126.665 34.009 126.965 33.7598 126.965C33.467 126.965 33.3957 126.522 33.5584 125.712C33.6969 125.023 33.8129 123.895 33.8161 123.206C33.821 122.25 33.9148 122.095 34.2128 122.554C34.4757 122.959 34.5957 121.519 34.5808 118.144C34.5675 115.087 34.4282 113.445 34.2245 113.933C34.0316 114.396 33.9329 112.238 33.9913 108.834C34.0614 104.732 34.251 102.742 34.6122 102.309C35.2436 101.551 34.9255 95.1904 34.2446 94.9642C34.0058 94.8848 33.8101 94.6603 33.8101 94.465C33.8101 94.2697 34.0686 94.2088 34.3843 94.3295C34.7218 94.4582 35.2392 94.1214 35.6403 93.5119C36.2197 92.6313 36.3224 91.3518 36.322 85.0183L36.3216 77.5613L37.1427 78.3793C37.8832 79.1167 37.9758 79.7843 38.0845 85.1707ZM37.0315 82.8811C37.0315 83.1144 37.2127 83.1942 37.4342 83.0579C37.6557 82.9216 37.8369 82.7307 37.8369 82.6333C37.8369 82.5358 37.6557 82.4564 37.4342 82.4564C37.2127 82.4564 37.0315 82.6477 37.0315 82.8811ZM35.0121 91.7792C35.0077 92.6654 34.8945 92.9076 34.6585 92.5367C34.342 92.0391 34.4975 90.476 34.8639 90.476C34.9485 90.476 35.0153 91.0623 35.0121 91.7792ZM34.2128 100.123C34.2128 100.577 34.0396 100.842 33.8278 100.712C33.616 100.582 33.5447 100.21 33.6696 99.8863C33.9889 99.0574 34.2128 99.1549 34.2128 100.123ZM35.8235 101.527C35.8235 101.87 36.0047 102.04 36.2262 101.904C36.4476 101.768 36.6288 101.487 36.6288 101.279C36.6288 101.071 36.4476 100.902 36.2262 100.902C36.0047 100.902 35.8235 101.183 35.8235 101.527ZM45.1946 106.916C45.1946 107.909 45.2732 108.315 45.3694 107.818C45.4652 107.322 45.4652 106.51 45.3694 106.014C45.2732 105.518 45.1946 105.924 45.1946 106.916ZM88.1717 110.61C88.1717 110.784 88.489 110.923 88.8764 110.92C89.4788 110.915 89.4933 110.857 88.9771 110.525C87.7083 109.709 91.8232 110.133 93.7021 111.012C96.0159 112.095 98.858 114.964 99.4822 116.847C100.703 120.532 98.2862 126.412 94.5304 128.896C93.9679 129.267 93.0413 129.902 92.4711 130.306C91.9013 130.71 91.1991 131.089 90.9108 131.149C90.6224 131.209 89.7128 131.555 88.8893 131.919C86.0476 133.172 86.3677 132.562 89.2964 131.143C92.5601 129.562 96.144 126.27 97.5264 123.583C98.1316 122.406 98.3724 121.159 98.3929 119.098C98.4171 116.603 98.2794 116.04 97.3001 114.633C95.8935 112.612 93.3542 111.542 89.9838 111.552C86.4676 111.562 83.1318 113.421 80.3513 116.922C77.1565 120.945 74.8113 126.332 75.8188 127.335C76.1284 127.644 76.1212 127.767 75.793 127.767C75.1145 127.767 74.7855 127.052 74.6135 125.206C74.256 121.36 76.6741 116.559 80.4778 113.564C83.3408 111.309 88.1717 109.455 88.1717 110.61ZM48.1052 111.728C48.2421 111.949 48.5244 112.129 48.733 112.129C48.9416 112.129 49.1119 111.949 49.1119 111.728C49.1119 111.507 48.8292 111.327 48.4841 111.327C48.139 111.327 47.9683 111.507 48.1052 111.728ZM99.0759 117.976C99.0952 118.444 99.1906 118.539 99.3191 118.219C99.4355 117.93 99.421 117.584 99.2873 117.45C99.1536 117.317 99.0586 117.554 99.0759 117.976ZM78.1048 118.144C78.1048 118.364 78.286 118.545 78.5074 118.545C78.7289 118.545 78.9101 118.364 78.9101 118.144C78.9101 117.923 78.7289 117.743 78.5074 117.743C78.286 117.743 78.1048 117.923 78.1048 118.144ZM96.5338 122.166C96.2833 123.152 95.8375 124.198 95.544 124.492C95.25 124.785 95.072 125.146 95.1482 125.294C95.2239 125.441 94.6818 126.164 93.9437 126.901C93.2052 127.637 92.6012 128.113 92.6012 127.959C92.6012 127.805 92.2839 128.054 91.8965 128.513C91.0336 129.534 88.967 130.615 88.4657 130.307C88.2636 130.182 88.8539 129.582 89.7772 128.974C92.7127 127.038 94.8981 124.661 95.8561 122.36C96.3598 121.149 96.8209 120.207 96.8809 120.267C96.9405 120.326 96.7846 121.181 96.5338 122.166ZM40.6556 124.96C40.6556 125.181 40.8368 125.361 41.0583 125.361C41.2798 125.361 41.461 125.181 41.461 124.96C41.461 124.74 41.2798 124.559 41.0583 124.559C40.8368 124.559 40.6556 124.74 40.6556 124.96ZM30.186 129.371C28.9639 130.289 29.228 130.653 30.8101 130.23C31.5797 130.025 31.9984 129.652 31.9997 129.173C32.0021 128.13 32.7172 128.019 33.3132 128.969C33.6116 129.445 33.6514 129.772 33.4106 129.772C33.1876 129.772 33.0047 130.055 33.0047 130.4C33.0047 130.867 33.2383 130.958 33.9108 130.753C34.4093 130.601 35.0399 130.298 35.3129 130.081C36.2459 129.338 38.5367 129.284 39.6026 129.979C40.3548 130.47 40.9713 130.561 41.9478 130.326C44.0647 129.816 45.605 129.888 46.8287 130.555L47.9683 131.176L46.426 131.397L44.8838 131.619L45.9948 132.165C46.937 132.628 47.2664 132.625 48.1696 132.144C48.7551 131.832 49.5858 131.636 50.0155 131.708C50.6437 131.814 50.7448 131.677 50.5313 131.006C50.2253 130.047 51.2674 129.805 51.8098 130.71C51.987 131.006 52.7481 131.457 53.5007 131.712C55.1762 132.282 55.5548 132.294 55.5548 131.777C55.5548 131.556 55.2829 131.376 54.9507 131.376C54.6185 131.376 54.3467 131.176 54.3467 130.932C54.3467 130.688 54.6056 130.587 54.9221 130.708C55.2386 130.829 56.1527 131.05 56.9533 131.2C58.7198 131.53 58.6111 132.248 56.7326 132.66C54.9765 133.046 38.3036 132.992 37.2393 132.598C36.4613 132.31 36.4638 132.287 37.34 131.743C37.8349 131.435 38.2396 131.044 38.2396 130.875C38.2396 130.485 36.5833 131.403 36.0168 132.107C35.6926 132.51 34.6239 132.588 31.5793 132.43C29.3734 132.316 26.5997 132.223 25.415 132.225C22.8323 132.229 22.9575 131.724 25.767 130.809C27.9209 130.108 28.686 130.222 28.3131 131.188C28.1702 131.56 28.3325 131.777 28.7537 131.777C29.2538 131.777 29.3283 131.613 29.0504 131.119C28.5269 130.187 28.8793 129.207 29.9089 128.734C31.1862 128.146 31.3417 128.503 30.186 129.371ZM25.6559 128.845C25.2681 128.947 24.6343 128.947 24.2465 128.845C23.8587 128.745 24.176 128.662 24.9512 128.662C25.7263 128.662 26.0436 128.745 25.6559 128.845ZM59.4382 128.947C61.6211 129.155 64.6505 129.439 66.1706 129.578C67.6903 129.718 69.3211 129.987 69.7947 130.178L70.6552 130.523L69.7729 130.549C69.2877 130.562 68.7787 130.755 68.6418 130.975C68.2387 131.624 66.8894 131.435 66.0651 130.615C65.4699 130.022 64.4254 129.788 61.3509 129.558C56.739 129.214 52.8725 128.691 54.4047 128.619C54.9902 128.592 57.2553 128.739 59.4382 128.947ZM18.6802 129.358C15.8071 129.686 14.922 130.078 15.7471 130.657C16.1104 130.911 15.7069 130.958 14.5423 130.796C13.5791 130.662 12.533 130.295 12.2177 129.981C11.7216 129.487 11.9849 129.391 14.1702 129.267C15.5595 129.189 17.6929 129.115 18.911 129.102L21.1257 129.08L18.6802 129.358ZM21.7297 130.289C21.7297 130.078 22.2733 129.906 22.9378 129.906C23.6022 129.906 24.1458 129.962 24.1458 130.03C24.1458 130.514 20.808 131.603 19.5053 131.545C17.2213 131.443 16.9975 131.363 17.9043 130.975C18.609 130.674 18.5586 130.619 17.5016 130.537C16.7615 130.479 17.1513 130.35 18.5083 130.203C19.7264 130.07 20.9497 130.122 21.2264 130.317C21.5268 130.529 21.7297 130.518 21.7297 130.289ZM9.86037 130.727C10.166 131.031 10.2945 131.402 10.1459 131.55C9.99688 131.698 10.1874 131.7 10.5687 131.554C10.9496 131.409 11.974 131.573 12.8442 131.92C13.8678 132.328 16.9604 132.706 21.6017 132.99C25.5479 133.232 30.9511 133.571 33.6088 133.745C40.8385 134.216 52.0607 134.236 56.1588 133.786C58.152 133.566 61.9288 133.196 64.5514 132.963C69.2809 132.543 70.2469 132.265 71.9305 130.836C72.8015 130.097 74.0727 130.308 73.9761 131.176C73.8887 131.966 76.0052 132.357 77.1879 131.769C77.8028 131.463 78.4728 131.13 78.6766 131.028C78.8803 130.927 78.9323 131.141 78.7921 131.505C78.5743 132.07 78.6504 132.096 79.3176 131.681C79.8798 131.331 80.2204 131.318 80.5361 131.632C80.8518 131.946 81.6705 131.91 83.4656 131.503C86.5562 130.802 88.1717 130.542 88.1717 130.746C88.1717 131.07 83.1342 132.579 82.0534 132.579C81.4212 132.579 80.9207 132.8 80.9175 133.08C80.9126 133.456 80.8257 133.447 80.5708 133.047C80.2921 132.609 80.189 132.619 80.0042 133.098C79.5818 134.195 68.0306 137.044 67.6967 136.134C67.6102 135.899 67.3726 135.906 67.0734 136.153C66.8072 136.373 65.602 136.65 64.3944 136.77C63.1867 136.889 61.7459 137.085 61.1923 137.204C60.6386 137.324 54.0246 137.531 46.4945 137.665C32.6117 137.912 21.321 137.416 20.2269 136.512C19.9265 136.263 19.7163 136.248 19.7163 136.475C19.7163 136.869 13.5694 136.111 10.8449 135.382C10.0629 135.173 7.99799 134.804 6.2564 134.563C4.51481 134.321 2.8445 133.879 2.5441 133.581C1.67834 132.718 1.87324 131.491 2.9045 131.315C4.22368 131.09 5.6713 131.374 5.40352 131.806C4.90017 132.617 7.16605 132.118 8.0757 131.218C9.27045 130.035 9.1883 130.058 9.86037 130.727ZM64.7157 130.57C65.4357 130.572 66.0244 130.775 66.0244 131.02C66.0244 131.288 65.5432 131.397 64.826 131.292C64.1672 131.196 63.533 131.311 63.4166 131.547C63.2733 131.839 63.1328 131.824 62.9781 131.499C62.8533 131.236 62.5259 131.106 62.2505 131.211C61.9755 131.316 61.1266 131.117 60.3639 130.767L58.9775 130.132L61.1923 130.35C62.4104 130.469 63.9957 130.569 64.7157 130.57ZM43.2058 131.158C43.2058 131.479 43.3568 131.649 43.5416 131.535C43.7261 131.422 43.8771 131.159 43.8771 130.951C43.8771 130.744 43.7261 130.574 43.5416 130.574C43.3568 130.574 43.2058 130.837 43.2058 131.158ZM73.2726 132.178C73.2726 132.399 73.4538 132.579 73.6753 132.579C73.8968 132.579 74.078 132.399 74.078 132.178C74.078 131.957 73.8968 131.777 73.6753 131.777C73.4538 131.777 73.2726 131.957 73.2726 132.178ZM8.84401 132.742C8.84401 133.235 10.6464 133.833 13.7623 134.376C16.9044 134.923 18.9549 135.109 34.0517 136.224C40.2425 136.68 48.4116 136.52 59.1789 135.731C65.0471 135.301 65.786 135.173 65.4558 134.641C65.3572 134.482 63.3156 134.573 60.9188 134.842C54.0234 135.617 39.0731 135.946 34.0114 135.435C31.5752 135.189 27.8605 134.896 25.7565 134.784C19.3918 134.447 10.0855 133.296 9.17099 132.733C8.99099 132.622 8.84401 132.626 8.84401 132.742ZM72.8699 133.262C70.9113 133.597 68.7646 134.238 68.9567 134.43C69.2583 134.73 74.4561 133.745 74.7078 133.339C74.9361 132.972 74.6357 132.959 72.8699 133.262ZM24.3471 138.431C25.676 138.577 27.8054 138.665 29.0786 138.625C31.1476 138.56 31.394 138.637 31.394 139.351C31.394 140.424 32.0399 140.765 32.4225 139.894C32.5916 139.51 32.7164 139.105 32.7003 138.995C32.6721 138.805 57.3169 138.811 58.1722 139C58.3936 139.05 58.7299 139.062 58.9191 139.028C59.1088 138.994 59.5618 139.198 59.9258 139.482C60.5133 139.939 60.5274 139.92 60.0494 139.312C59.4623 138.566 59.7619 138.428 62.7265 138.08L64.0597 137.924L62.9282 138.822C62.3057 139.316 61.6896 139.654 61.5583 139.574C61.427 139.493 60.7119 140.051 59.9689 140.815C58.5583 142.264 57.7526 142.549 57.4659 141.701C57.3358 141.316 57.1312 141.336 56.5864 141.784C55.5378 142.646 55.0969 142.707 48.5502 142.893C43.8646 143.027 42.4782 142.948 42.214 142.533C41.9591 142.132 41.8745 142.125 41.8697 142.503C41.8657 142.848 41.1086 143.004 39.4476 143.004C38.1055 143.004 37.0315 142.826 37.0315 142.604C37.0315 142.383 36.8394 142.203 36.6051 142.203C36.3707 142.203 36.2906 142.383 36.4275 142.604C36.7666 143.15 32.2219 143.122 28.3904 142.555C26.7201 142.308 25.3538 141.952 25.3538 141.765C25.3538 141.579 25.0587 141.539 24.6983 141.676C24.2775 141.837 23.7761 141.581 23.2978 140.962C22.79 140.304 22.5488 140.188 22.5395 140.599C22.5315 140.959 22.1139 140.679 21.4946 139.897C20.9276 139.18 20.2732 138.594 20.0405 138.594C19.7949 138.594 19.8492 138.888 20.1706 139.295C20.6707 139.931 20.6566 139.945 20.0228 139.451C19.6378 139.15 19.4204 138.746 19.5404 138.553C19.66 138.36 19.4771 138.309 19.1333 138.441C18.7882 138.572 18.5083 138.47 18.5083 138.211C18.5083 137.894 19.062 137.811 20.2197 137.953C21.1612 138.069 23.0183 138.284 24.3471 138.431ZM44.9687 140.197C44.8528 140.638 44.9224 141.1 45.123 141.223C45.3235 141.347 45.4878 140.986 45.4878 140.422C45.4878 139.193 45.2583 139.094 44.9687 140.197ZM53.5414 141.401C53.5414 141.621 53.7334 141.802 53.9678 141.802C54.2022 141.802 54.2823 141.621 54.1454 141.401C54.0085 141.18 53.8168 141 53.7189 141C53.6211 141 53.5414 141.18 53.5414 141.401Z" fill="#5F5D59"/>
</svg>
