<svg width="20" height="20" viewBox="0 0 20 20" fill="none" xmlns="http://www.w3.org/2000/svg">
<path d="M12.5 9.5V12H13.5L15.5 10L17.5 10.5L18.5 12L17 13L16 16L13.5 19L10.5 19.5L7.5 19L5 17L1 18L0.5 16.5V14.5L1.5 12.5L3.5 13.5L5.5 14.5L7.5 14L4.5 10L3 4V1L3.5 0.5L10.5 5L12.5 7.5V9.5Z" fill="white"/>
<path fill-rule="evenodd" clip-rule="evenodd" d="M2.77857 0.11496C2.69181 0.249838 2.63456 1.51528 2.65148 2.92726C2.67627 4.97136 2.78526 5.89083 3.18642 7.44005C3.75225 9.62496 4.9455 12.0332 6.0087 13.1357L6.71206 13.8652L6.19108 13.9964C5.43303 14.1873 4.96045 14.011 3.26669 12.9043C2.43171 12.3589 1.61425 11.9126 1.45016 11.9126C0.993325 11.9126 0.130409 13.8157 0.0166914 15.074C-0.0974196 16.3379 0.394438 18.38 0.855801 18.5577C1.01241 18.618 2.0097 18.3616 3.07172 17.988L5.00295 17.3087L5.87767 18.095C7.22261 19.3044 8.62716 19.8716 10.5263 19.9721C11.8945 20.0446 12.2706 19.992 13.0324 19.6217C14.317 18.9977 15.4284 17.6347 16.5032 15.3655C17.0183 14.2778 17.6026 13.2444 17.8017 13.0692C18.0006 12.894 18.5837 12.69 19.0978 12.6158C20.2858 12.4442 20.2993 12.1071 19.1456 11.4285C18.6579 11.1416 18.1253 10.7024 17.9624 10.4528C17.0541 9.06116 15.1152 9.32163 13.8344 11.0071C13.5385 11.3965 13.2146 11.7151 13.1149 11.7151C13.0084 11.7151 12.9876 11.1118 13.0649 10.2569C13.3453 7.15193 12.4662 5.77866 8.46288 3.06688C4.67872 0.503598 3.06759 -0.33312 2.77857 0.11496ZM5.57174 2.09587C9.98134 4.82128 11.789 6.35352 12.1437 7.66676C12.4176 8.68002 12.417 10.0438 12.1422 11.3294C11.9958 12.0147 11.9899 12.4106 12.1241 12.5453C12.4812 12.9037 13.6138 12.3474 14.6241 11.318C15.8769 10.0412 16.4802 9.99918 17.5636 11.113L18.3227 11.8932L17.821 12.1227C17.1607 12.4246 16.6336 13.164 15.9976 14.681C15.0858 16.8553 14.0329 18.2696 12.8904 18.8545C12.2207 19.1976 11.8288 19.2513 10.5015 19.1814C8.65077 19.0838 7.6039 18.6401 6.09212 17.3128L5.10939 16.4498L3.18583 17.1398C1.0494 17.9062 1.04428 17.9049 0.831405 16.4913C0.674207 15.4474 0.80091 14.4198 1.20699 13.448L1.5143 12.7123L3.29699 13.8129L5.07968 14.9135L6.30952 14.7734C8.15379 14.5633 8.20691 14.4271 6.9694 13.0854C5.89439 11.9199 4.6012 9.88859 4.71984 9.55189C4.75564 9.45058 5.55737 9.8173 6.50174 10.3669C8.06919 11.279 8.818 11.4665 8.818 10.9465C8.818 10.8428 7.7607 10.1696 6.46849 9.45039L4.11918 8.14288L3.79416 6.67659C3.61532 5.87029 3.49944 5.12164 3.53662 5.01323C3.57381 4.90481 4.84379 5.52135 6.35871 6.38334C7.87363 7.24534 9.23018 7.9535 9.3734 7.95685C9.51663 7.96021 9.60497 7.80736 9.56975 7.61739C9.5308 7.40707 8.29387 6.57964 6.4075 5.50239L3.30919 3.73297V2.60576C3.30919 1.30319 3.4532 0.800407 3.77252 0.989592C3.89647 1.06286 4.70607 1.56071 5.57174 2.09587ZM15.6056 11.1226C15.441 11.39 15.6631 11.7151 16.0107 11.7151C16.1667 11.7151 16.2942 11.5373 16.2942 11.3201C16.2942 10.9113 15.8195 10.7751 15.6056 11.1226Z" fill="black"/>
</svg>
