<svg width="149" height="153" viewBox="0 0 149 153" fill="none" xmlns="http://www.w3.org/2000/svg">
<path fill-rule="evenodd" clip-rule="evenodd" d="M63.6569 1.19551C54.3007 3.70209 47.3756 7.95929 40.3781 15.5061C36.0589 20.1643 30.3955 29.2953 29.4494 33.1265C29.039 34.7899 28.5603 34.9962 22.6618 36.0571C8.61941 38.5812 0 45.8589 0 55.1901C0 58.759 2.38104 65.0751 5.42776 69.5852C8.76568 74.5281 14.4142 80.2999 21.5343 86.044L26.4108 89.978V98.9062C26.4108 109.293 27.1334 113.9 29.8801 121.027C35.3241 135.155 46.7837 146.367 60.6095 151.091C65.2761 152.686 67.1539 152.95 74.1535 152.996C80.8889 153.039 83.1494 152.776 87.3589 151.461C95.4514 148.93 100.574 145.714 107.356 138.903C112.423 133.814 114.02 131.663 116.68 126.339C122.168 115.357 122.573 112.672 122.573 87.3511C122.573 75.3239 122.758 65.4836 122.984 65.4836C123.815 65.4836 130.498 71.0904 135.313 75.8263C154.398 94.5969 151.074 111.04 127.283 115.551C121.509 116.646 120.224 117.862 125.508 117.233C132.695 116.376 139.184 113.643 143.713 109.565C154.413 99.934 148.63 84.0966 128.564 68.0747L122.703 63.3955L122.61 53.6187C122.502 42.1913 121.279 36.3391 117.252 27.9558C110.837 14.602 98.1853 4.12132 84.6501 0.946678C78.8702 -0.408377 69.2194 -0.294106 63.6569 1.19551ZM83.6147 2.2686C90.793 3.78729 97.1885 7.17493 101.959 11.9852C109.809 19.9012 114.991 30.956 116.42 42.8317C117.263 49.8375 117.394 59.3993 116.648 59.3953C116.368 59.3939 115.079 58.7468 113.782 57.9577C108.703 54.8662 95.4216 48.5501 88.3564 45.8664C71.3851 39.4197 55.3347 35.9117 39.7855 35.2511C32.8083 34.9542 30.474 34.6351 30.474 33.9772C30.474 32.3827 35.6235 23.13 38.8185 18.9843C44.8632 11.1407 55.5223 4.36204 65.06 2.297C70.8155 1.05081 77.8056 1.03999 83.6147 2.2686ZM49.909 37.4459C62.8727 39.129 75.8702 42.4963 89.2368 47.6339C96.6663 50.4894 109.425 56.6446 114.679 59.9065L117.28 61.5218L117.005 83.6186C116.698 108.206 116.241 111.616 112.016 120.822C106.972 131.813 99.1381 140.049 89.0519 144.967C69.7693 154.369 50.9512 150.266 38.5835 133.966C31.972 125.251 28.7973 116.617 27.6982 104.364C27.0305 96.9203 27.5878 94.2636 29.9451 93.6483C30.8594 93.4096 34.3849 94.8823 40.2169 97.9407C62.4928 109.62 84.7415 116.445 105.474 117.962C114.941 118.653 113.128 117.298 103.335 116.362C93.2715 115.399 87.1104 114.198 75.9007 111.012C60.7022 106.694 41.2171 98.0759 31.1512 91.2201L27.4266 88.6831L27.4619 66.7663C27.4944 46.4573 27.5939 44.652 28.8163 42.1589C31.6801 36.3181 35.188 35.5344 49.909 37.4459ZM27.6027 38.9437C27.0569 40.2041 26.6804 48.3892 26.4345 64.353L26.0722 87.9028L21.6704 84.5747C11.0506 76.5438 2.64785 65.088 1.59955 57.2099C0.719187 50.5982 4.18848 44.5269 10.7587 41.1798C14.4928 39.2784 22.1228 37.1897 25.5474 37.1322L28.4086 37.0842L27.6027 38.9437Z" fill="#5F5D59"/>
<path d="M61.3272 100.375C61.1406 98.9504 61.1572 97.6118 61.3631 97.4001C62.3925 96.345 62.8489 97.355 62.8489 100.689C62.8489 102.832 63.2027 104.662 63.6985 105.084C64.1662 105.481 66.0398 105.903 67.8627 106.021C69.6857 106.139 71.0955 106.543 70.9949 106.918C70.8943 107.294 69.5145 107.501 67.9287 107.378C64.0456 107.076 62.8489 108.361 62.8489 112.829C62.8489 115.207 62.6024 116.168 62.0414 115.976C61.5304 115.801 61.3005 114.579 61.4164 112.649C61.6596 108.596 60.0985 107.037 56.1261 107.367C54.2925 107.519 53.2105 107.304 53.0266 106.748C52.8227 106.132 53.7762 105.894 56.44 105.894C60.7788 105.894 61.8855 104.644 61.3272 100.375Z" fill="#5F5D59"/>
<path d="M87.3272 40.3751C87.1406 38.9504 87.1572 37.6118 87.3631 37.4001C88.3925 36.345 88.8489 37.355 88.8489 40.6885C88.8489 42.8323 89.2027 44.6619 89.6985 45.084C90.1662 45.4815 92.0398 45.9028 93.8627 46.021C95.6857 46.1391 97.0955 46.5428 96.9949 46.9184C96.8943 47.294 95.5145 47.5009 93.9287 47.378C90.0456 47.0761 88.8489 48.3608 88.8489 52.8293C88.8489 55.2073 88.6024 56.1676 88.0414 55.9763C87.5304 55.8015 87.3005 54.579 87.4164 52.649C87.6596 48.5957 86.0985 47.0372 82.1261 47.3671C80.2925 47.5194 79.2105 47.3036 79.0266 46.7477C78.8227 46.1323 79.7761 45.894 82.44 45.894C86.7788 45.894 87.8855 44.6442 87.3272 40.3751Z" fill="#5F5D59"/>
</svg>
