<svg width="20" height="22" viewBox="0 0 20 22" fill="none" xmlns="http://www.w3.org/2000/svg">
<path d="M4.5 3L5.5 1.5L8 0.5H10H12L14 1.5L15 2.5L16 3L17.5 3.5L19 6V8L18.5 9L19 10L19.5 11L19 14L17.5 16L16.5 16.5H15V17.5L13 18.5L12 19H9.5L6.5 18.5L5 17L4.5 16.5H3.5L2 15.5L0.5 13.5V12L1 10L1.5 9.5L1 8.5L1.5 5L3 3.5L4.5 3Z" fill="white"/>
<path fill-rule="evenodd" clip-rule="evenodd" d="M8.29771 0.125147C7.35448 0.289268 6.35389 0.617377 5.73737 0.964632C5.45518 1.12358 5.20764 1.24222 5.18725 1.22832C5.16693 1.21434 5.16292 1.22045 5.17842 1.24189C5.19385 1.26338 5.08184 1.39183 4.92939 1.5274C4.77695 1.66304 4.56958 1.88628 4.46852 2.0236C4.36745 2.16091 4.2638 2.25255 4.23818 2.22722C4.21256 2.20189 4.20814 2.22554 4.22846 2.27982C4.2899 2.44455 4.18591 2.51932 3.68902 2.66779C3.42735 2.74598 3.04586 2.91461 2.84128 3.04245C2.6367 3.1703 2.44083 3.25756 2.40603 3.23627C2.37116 3.21497 2.36307 3.23015 2.38795 3.26999C2.44123 3.35518 2.06545 3.64009 1.99354 3.56901C1.96663 3.54241 1.95474 3.56599 1.96724 3.62141C1.97975 3.67717 1.94971 3.71392 1.89989 3.70371C1.85034 3.69356 1.82947 3.71661 1.85347 3.75497C1.87739 3.79333 1.78536 3.95275 1.64896 4.10934C1.51255 4.26587 1.26733 4.66607 1.10401 4.99861C0.38357 6.4661 0.221132 8.08259 0.691863 9.10064L0.849068 9.4405L0.689144 9.63808C-0.274746 10.8288 -0.221257 13.1153 0.810328 14.8175C1.13296 15.3499 1.89859 16.1409 2.36892 16.4279C2.58879 16.562 2.74925 16.7028 2.7256 16.7407C2.70188 16.7785 2.7131 16.7908 2.75041 16.7681C2.78779 16.7452 2.98047 16.7874 3.17859 16.8618C3.37678 16.9363 3.73489 17.0153 3.97447 17.0374C4.39382 17.0761 4.41754 17.0883 4.60907 17.3634C4.86136 17.7259 5.48392 18.2763 5.87126 18.4795C6.03547 18.5655 6.16963 18.6814 6.16943 18.7368C6.16929 18.7923 6.04838 19.4216 5.90083 20.1351C5.60959 21.5436 5.61326 21.7207 5.93569 21.8006C6.26587 21.8826 6.35083 21.7025 6.62147 20.3475C6.75781 19.6649 6.88891 19.0842 6.91277 19.0571C6.93663 19.0299 7.11306 19.0666 7.30486 19.1386C7.73998 19.302 8.82696 19.5194 9.50009 19.5777C10.3444 19.6508 11.9522 19.4204 12.7658 19.1097L13.0071 19.0175L13.2667 20.3185C13.5267 21.6214 13.6083 21.8273 13.8647 21.8273C13.923 21.8273 14.0417 21.7705 14.1284 21.7011L14.2861 21.5749L14.0228 20.2399C13.878 19.5057 13.7485 18.8596 13.735 18.8042C13.7097 18.7001 14.3489 18.2936 14.5118 18.3102C14.5582 18.3149 14.5806 18.294 14.5617 18.2638C14.5427 18.2335 14.5945 18.1622 14.6767 18.1053C14.7962 18.0226 14.8475 18.0183 14.9327 18.0839C15.0243 18.1545 15.0275 18.1509 14.9546 18.0586C14.8851 17.9705 14.8922 17.9313 14.9941 17.8401C15.0624 17.779 15.1413 17.7517 15.1694 17.7795C15.1975 17.8073 15.2104 17.7847 15.1979 17.7293C15.1854 17.6735 15.2154 17.6368 15.2652 17.647C15.3148 17.6571 15.336 17.6346 15.3125 17.597C15.2889 17.5593 15.3515 17.4225 15.4514 17.293C15.6014 17.0986 15.677 17.0575 15.8846 17.0575C16.1456 17.0575 16.749 16.9083 17.0443 16.7707C17.1377 16.7272 17.3959 16.5724 17.618 16.4267C17.84 16.2809 18.06 16.1618 18.1069 16.1618C18.1538 16.1618 18.1862 16.129 18.1789 16.0889C18.1717 16.049 18.2116 16.0263 18.2677 16.0386C18.3237 16.0509 18.3482 16.0398 18.322 16.014C18.2959 15.988 18.4543 15.7557 18.6741 15.4976C20.1042 13.8182 20.4255 11.3024 19.4024 9.79367L19.172 9.45394L19.3485 9.04011C19.5095 8.66276 19.5249 8.54647 19.5237 7.71941C19.5227 6.98883 19.4922 6.70143 19.3671 6.24144C19.1891 5.58731 18.8763 4.8664 18.5801 4.42758C17.9565 3.50351 16.8948 2.74162 16.0022 2.57736C15.7915 2.53867 15.748 2.50535 15.7749 2.40357C15.7932 2.3343 15.7805 2.29453 15.7466 2.31529C15.7127 2.33598 15.685 2.32208 15.685 2.28439C15.685 2.2467 15.5495 2.05141 15.3837 1.85034C15.2181 1.64933 15.1035 1.4619 15.1289 1.43389C15.1544 1.40587 15.1406 1.40245 15.0983 1.42636C15.056 1.45028 14.9485 1.4132 14.8595 1.344C14.1139 0.764301 12.6892 0.250573 11.3133 0.0652894C10.5172 -0.0419304 9.0959 -0.0137147 8.29771 0.125147ZM10.9971 0.800645C12.0931 0.930101 12.8901 1.152 13.714 1.5571C14.0317 1.71329 14.2844 1.87781 14.2755 1.92269C14.2666 1.96757 14.3 1.9888 14.3497 1.96999C14.3997 1.95097 14.5576 2.06424 14.7033 2.22373L14.9666 2.51173L14.5951 2.56413C14.0833 2.63621 13.6498 2.91085 13.4591 3.28376C13.0634 4.05728 13.5023 4.82112 14.3783 4.88373C15.1362 4.93794 15.7676 4.45384 15.8626 3.74583C15.8869 3.56491 15.9343 3.40005 15.968 3.37943C16.1673 3.25776 17.5869 4.1991 17.4747 4.37853C17.4499 4.41824 17.4639 4.42831 17.5073 4.40178C17.6085 4.33991 17.955 4.81212 18.2408 5.40169C18.6771 6.30157 18.9036 7.60064 18.7502 8.32403C18.6299 8.89151 18.6229 8.89554 18.1513 8.66424C17.2548 8.22461 16.6158 8.26055 16.1272 8.77811C15.6228 9.31246 15.8102 10.1257 16.5203 10.4837C16.926 10.6884 17.5688 10.6341 18.0984 10.3506C18.3137 10.2354 18.521 10.1601 18.5591 10.1835C18.5973 10.2068 18.608 10.1931 18.5829 10.153C18.5578 10.1128 18.5665 10.0622 18.6021 10.0405C18.6376 10.0187 18.7812 10.2298 18.921 10.5095C19.1567 10.9809 19.1775 11.0706 19.2043 11.7369C19.2373 12.5562 19.0901 13.2917 18.7512 14.0008C18.5116 14.5021 17.9472 15.2634 17.8563 15.2078C17.819 15.185 17.7969 15.204 17.8072 15.2501C17.8175 15.2961 17.637 15.4767 17.4061 15.6515C17.022 15.9423 16.5501 16.1644 16.0796 16.2758C15.8976 16.3189 15.8965 16.317 15.8889 15.9325C15.8776 15.359 15.8595 15.1864 15.8138 15.2144C15.7912 15.2282 15.6995 15.1619 15.6099 15.0672C15.3707 14.8141 15.1192 14.7062 14.7687 14.7062C14.1854 14.7062 13.7926 14.985 13.6484 15.5012C13.5513 15.8486 13.6701 16.2072 13.9987 16.5597C14.1507 16.7226 14.2997 16.8559 14.3299 16.8559C14.3601 16.8559 14.4677 16.8871 14.569 16.9252L14.7532 16.9944L14.5905 17.1698C14.3636 17.4143 13.6425 17.9366 13.5825 17.8999C13.5552 17.8833 13.4942 17.6491 13.4468 17.3796C13.334 16.7381 13.2281 16.5729 12.9467 16.6C12.6003 16.6334 12.5539 16.8156 12.7053 17.5455C12.7757 17.8848 12.8211 18.1938 12.8061 18.2323C12.7913 18.2708 12.5689 18.3681 12.312 18.4486C10.7896 18.9262 9.16597 18.9205 7.60242 18.4323C7.30045 18.338 7.05332 18.2504 7.05332 18.2376C7.05332 18.2248 7.11483 17.919 7.18993 17.558C7.3139 16.9626 7.31689 16.887 7.22235 16.7444C7.10708 16.5705 6.77949 16.5278 6.66034 16.6712C6.62201 16.7174 6.53658 17.0045 6.47058 17.3094C6.40452 17.6143 6.32514 17.8636 6.29414 17.8636C6.26308 17.8636 6.17656 17.8032 6.1018 17.7293C6.02704 17.6554 5.94167 17.5949 5.91204 17.5949C5.88248 17.5949 5.72479 17.4605 5.56168 17.2962L5.26514 16.9975L5.56453 16.8777C5.72921 16.8118 5.88689 16.7648 5.9149 16.7733C5.94297 16.7818 5.95833 16.7661 5.94908 16.7384C5.93991 16.7107 6.02099 16.5734 6.12926 16.4332C6.39759 16.0861 6.44136 15.6382 6.24433 15.2564C5.88988 14.5697 4.7501 14.5083 4.30751 15.1521C4.22241 15.2759 4.1378 15.3625 4.11965 15.3445C4.10143 15.3265 4.08886 15.533 4.09165 15.8034L4.09681 16.2949L3.81006 16.2419C3.32037 16.1515 2.39339 15.632 2.47399 15.4931C2.50009 15.4482 2.49608 15.4343 2.46502 15.4621C2.38951 15.5299 2.15143 15.3114 2.20587 15.2243C2.22945 15.1865 2.216 15.1757 2.17596 15.2001C2.06634 15.2671 1.5935 14.681 1.31701 14.1355C0.965833 13.4424 0.78919 12.7187 0.784024 11.9518C0.779131 11.2231 0.863273 10.8573 1.1507 10.3574L1.35283 10.0058L1.54973 10.1497C1.65806 10.2289 1.72787 10.3237 1.70482 10.3605C1.68185 10.3973 1.69612 10.4072 1.73656 10.3824C1.777 10.3578 1.96636 10.3984 2.15734 10.4729C2.83244 10.7359 3.60236 10.5884 3.93016 10.1333C4.16858 9.8024 4.19387 9.23735 3.98392 8.93484C3.56457 8.33082 2.91475 8.19337 2.101 8.53666C1.93781 8.60545 1.7176 8.72282 1.61158 8.79745L1.41876 8.93316L1.31355 8.58281C1.09905 7.86889 1.22533 6.70156 1.6249 5.704C1.85605 5.12686 2.26955 4.47084 2.36532 4.52935C2.40093 4.55112 2.41371 4.5268 2.39373 4.47527C2.34669 4.35401 2.88376 3.86904 2.99509 3.93219C3.04035 3.95785 3.05327 3.95275 3.0239 3.92083C2.94751 3.83793 3.46228 3.52843 3.90093 3.39354C4.02592 3.35511 4.05059 3.38272 4.08832 3.60287C4.11224 3.7424 4.19761 3.99258 4.27808 4.15885C4.35855 4.32513 4.41951 4.48381 4.41353 4.51155C4.40755 4.53923 4.44092 4.55435 4.48761 4.54514C4.53438 4.53587 4.56238 4.57369 4.54994 4.62912C4.53743 4.68454 4.54756 4.7098 4.57244 4.68521C4.59731 4.66069 4.74514 4.69778 4.90091 4.76771C5.26718 4.9321 5.76503 4.93331 6.08753 4.7706C6.43137 4.59714 6.55377 4.44746 6.64492 4.08879C6.70921 3.83605 6.70337 3.73219 6.61107 3.48416C6.54976 3.3195 6.49675 3.14698 6.49328 3.10076C6.48982 3.05461 6.4712 3.03231 6.45203 3.05132C6.4328 3.07033 6.33805 3.01101 6.24147 2.91958C6.04158 2.73026 5.56691 2.54653 5.27765 2.54653C5.17019 2.54653 5.08231 2.52261 5.08231 2.49332C5.08231 2.37347 5.68415 1.86082 5.76612 1.91087C5.81845 1.94278 5.83374 1.93519 5.80615 1.89105C5.71277 1.74164 6.71438 1.2916 7.69961 1.04014C8.82641 0.752678 9.91869 0.673338 10.9971 0.800645ZM5.69306 3.47563C5.92482 3.6458 5.96104 3.98634 5.75878 4.09335C5.57425 4.19097 5.20193 4.1262 5.06573 3.97276C5.00891 3.90888 4.94115 3.78097 4.91505 3.68859C4.88895 3.59622 4.85123 3.46314 4.83118 3.3928C4.79754 3.27503 4.8233 3.26831 5.15844 3.30755C5.35846 3.33092 5.59906 3.40657 5.69306 3.47563ZM15.1412 3.40986C15.1412 3.96531 14.5349 4.36684 14.1781 4.04767C13.8287 3.73515 14.246 3.3101 14.9204 3.29156C15.0922 3.28685 15.1412 3.31312 15.1412 3.40986ZM9.33595 5.10737C8.92258 5.20324 8.24734 5.55668 7.6052 6.01337L7.01934 6.43002L6.81544 6.30856C6.19525 5.93913 5.13125 5.86134 4.5583 6.14356C3.79164 6.52118 3.81591 7.37605 4.60452 7.7698C4.83533 7.88508 5.024 7.92095 5.3989 7.92095C5.83667 7.92095 5.94616 7.89254 6.39745 7.6617C6.99909 7.35395 6.92528 7.28234 7.25287 8.49198C7.8161 10.572 8.07152 11.1573 8.6913 11.7879C8.83878 11.9379 8.93577 12.0864 8.90695 12.1178C8.87807 12.1491 8.8903 12.1545 8.93414 12.1297C8.97805 12.1049 9.13097 12.1528 9.27397 12.2363C9.47202 12.3519 9.63949 12.3882 9.97585 12.3883C10.482 12.3884 10.8719 12.2247 11.2715 11.8439C11.4047 11.717 11.5395 11.6364 11.5712 11.6649C11.6029 11.6933 11.6082 11.681 11.583 11.6375C11.5577 11.594 11.6314 11.4202 11.7466 11.2514C12.0527 10.8031 12.2564 10.2626 12.5964 8.99597C12.7629 8.3759 12.9458 7.75804 13.0028 7.62301L13.1067 7.37746L13.2969 7.51135C13.6719 7.77524 14.1915 7.93002 14.6618 7.9178C14.9068 7.91141 15.199 7.90503 15.3112 7.90362C15.4233 7.90221 15.4746 7.88716 15.4251 7.87016C15.3682 7.85062 15.4207 7.78182 15.5683 7.68266C15.7858 7.53661 16.0248 7.16766 16.0248 6.97808C16.0248 6.93253 15.9893 6.77828 15.946 6.63526C15.8853 6.43506 15.7956 6.33335 15.5552 6.1926C15.2695 6.02533 15.1828 6.00981 14.527 6.00813C13.8661 6.00645 13.7792 6.02183 13.3997 6.20785L12.9884 6.4094L12.5866 6.11568C12.3656 5.95411 12.1932 5.79315 12.2034 5.75795C12.2137 5.72281 12.1888 5.71435 12.1482 5.7392C12.1075 5.76399 12.0226 5.73947 11.9596 5.68465C11.7822 5.53048 11.2045 5.26021 10.7961 5.14049C10.3967 5.02333 9.76067 5.00889 9.33595 5.10737ZM10.8294 5.91273C11.1774 6.04145 12.3679 6.77143 12.4537 6.90875C12.4734 6.94012 12.4293 7.10021 12.3558 7.26447C12.2823 7.42872 12.0982 8.02911 11.9467 8.5986C11.5369 10.1388 11.2003 10.9941 11.0418 10.8974C11.0047 10.8747 10.9939 10.8875 11.0179 10.9258C11.0719 11.0123 10.852 11.2954 10.5846 11.4836C10.3132 11.6746 10.3314 11.566 10.6283 11.2232C10.8646 10.9502 10.8691 10.9352 10.7626 10.7744C10.6115 10.5465 10.4352 10.566 10.1942 10.8372L9.99073 11.0664L9.76604 10.8372C9.64248 10.7113 9.49234 10.6082 9.4324 10.6082C9.17678 10.6082 9.06151 10.9809 9.2654 11.1482C9.32317 11.1957 9.43484 11.3238 9.51348 11.4329C9.64526 11.6159 9.64635 11.626 9.52734 11.562C9.45625 11.5238 9.29395 11.3855 9.16665 11.2546C8.96003 11.0424 8.94542 11.0038 9.03072 10.8964C9.11717 10.7876 9.11527 10.7846 9.01101 10.8653C8.90811 10.9449 8.87311 10.9103 8.68579 10.5435C8.57032 10.3175 8.30532 9.52152 8.0968 8.77481C7.88835 8.02804 7.67528 7.33548 7.62342 7.23571C7.57156 7.13588 7.52908 7.02416 7.52908 6.98741C7.52908 6.87831 8.84565 6.04501 9.23903 5.90514C9.72893 5.73094 10.3457 5.7339 10.8294 5.91273ZM5.92543 6.7893C5.89607 6.83619 5.90667 6.84862 5.95228 6.82081C5.99367 6.79548 6.11043 6.79535 6.2117 6.82047C6.39263 6.86535 6.39018 6.86898 6.0719 7.02886C5.56813 7.28193 4.74249 7.23162 4.74249 6.94785C4.74249 6.78547 4.961 6.71587 5.47713 6.71372C5.83572 6.71224 5.96043 6.73327 5.92543 6.7893ZM15.1457 6.78124C15.3193 6.87307 15.3126 7.02416 15.1307 7.12036C14.8762 7.25499 14.3609 7.22127 13.9803 7.04506L13.6294 6.88261L13.8246 6.80018C14.0643 6.69901 14.9658 6.68604 15.1457 6.78124ZM3.23208 9.2348C3.4196 9.36459 3.42551 9.55861 3.24724 9.73482C3.06319 9.91674 2.74946 9.90465 2.30129 9.69841C1.89472 9.51138 1.89914 9.46502 2.34275 9.26039C2.66892 9.10998 3.03661 9.09943 3.23208 9.2348ZM17.707 9.29573C17.9032 9.38602 18.0638 9.47806 18.0638 9.50029C18.0638 9.57466 17.3146 9.86918 17.1254 9.86918C16.8696 9.86918 16.6365 9.69344 16.6365 9.5007C16.6365 9.10937 17.1065 9.01935 17.707 9.29573ZM9.97585 10.8769C9.91461 10.916 9.90619 10.9424 9.95485 10.9431C9.99937 10.9436 10.0547 10.9138 10.0778 10.8769C10.1299 10.7934 10.1064 10.7934 9.97585 10.8769ZM5.51927 15.5507C5.70475 15.7341 5.60721 15.9865 5.28757 16.1499C4.92973 16.3327 4.86883 16.2941 4.89187 15.8986C4.90859 15.6118 4.93449 15.5477 5.03059 15.5551C5.09564 15.5602 5.13207 15.5375 5.11154 15.5047C5.04616 15.4001 5.40814 15.4409 5.51927 15.5507ZM15.0169 15.5563C15.1526 15.6777 15.1915 16.1455 15.0719 16.2185C14.963 16.2851 14.5357 16.1194 14.461 15.9816C14.3584 15.7919 14.3803 15.5939 14.5126 15.5177C14.6885 15.4165 14.8767 15.4308 15.0169 15.5563Z" fill="black"/>
</svg>
