<svg width="90" height="91" viewBox="0 0 90 91" fill="none" xmlns="http://www.w3.org/2000/svg">
<path d="M42 22L45 2.5L47 15C47.5 20 50 31.3 56 36.5C62 41.7 73.5 43.3333 78.5 43.5L87.5 44.5C82.8333 45.1667 71.7 47 64.5 49C55.5 51.5 53 56 51 59C49 62 47.5 70.5 45 86.5C42 63.5 40.2996 58.6542 34 53.5C28.5 49 20.5 47.5 16.5 46.5L2 45L18.5 42.5C20.8333 42.3333 26.9 40.7 32.5 37.5C38.1 34.3 41.1667 26 42 22Z" fill="white"/>
<path fill-rule="evenodd" clip-rule="evenodd" d="M44.2646 5.62576C43.464 12.169 42.6476 17.2652 41.832 20.8111C40.6883 25.7829 38.8733 30.2594 36.9757 32.7877C35.8895 34.2349 33.5846 36.4201 32.212 37.3039C27.3611 40.4269 20.1537 42.2889 6.60869 43.9184C3.88364 44.2463 1.28181 44.5739 0.826975 44.6463L0 44.778L0.578882 44.8831C0.897267 44.9409 3.61388 45.2868 6.6158 45.6516C32.8479 48.8406 38.6083 52.9469 42.3466 71.1228C42.8981 73.8046 43.7959 79.8945 44.4087 85.1122C44.6914 87.5182 44.9462 89.561 44.9752 89.6518C45.0562 89.9062 45.1818 89.0182 45.7342 84.2868C48.2915 62.3817 51.4618 55.2012 60.5345 50.7647C65.0829 48.5406 72.0181 47.0171 84.5003 45.4999C87.4933 45.136 89.9677 44.8126 89.9995 44.7811C90.0311 44.7496 88.6244 44.5568 86.8733 44.3527C67.6612 42.1141 60.3508 40.0039 55.223 35.2165C50.1955 30.5225 47.877 23.1353 45.6597 4.74573C45.3496 2.17266 45.0655 0.037374 45.0286 0.00039649C44.9916 -0.0364159 44.6479 2.49489 44.2646 5.62576ZM45.4069 6.87722C47.599 25.4142 50.6137 33.1776 57.3439 37.6194C61.553 40.3971 67.0559 42.0725 76.9086 43.576C79.0009 43.8955 81.9188 44.2874 83.3929 44.4473C84.8671 44.6071 86.058 44.7526 86.0393 44.7706C86.0206 44.7885 84.6284 44.9652 82.9455 45.1628C75.9642 45.9831 69.1385 47.2348 65.2633 48.4054C60.5144 49.8399 57.0507 51.7175 54.4955 54.2426C50.0042 58.6807 47.3711 66.6119 45.646 80.8989C45.0111 86.1568 45.0288 86.1172 44.6844 83.0487C43.7241 74.4937 42.1208 66.5445 40.5209 62.4058C36.5032 52.0129 30.1871 48.398 11.4122 45.7463C9.22904 45.4381 6.62407 45.0918 5.62343 44.9767L3.80408 44.7677L6.94659 44.4077C16.1819 43.3494 23.3786 41.8825 27.6984 40.1779C35.8932 36.9442 39.7909 31.8751 42.2668 21.2314C43.2018 17.2119 44.2028 11.0334 44.7605 5.83756C44.8748 4.77313 44.9904 3.92414 45.0174 3.95121C45.0445 3.97812 45.2196 5.29495 45.4069 6.87722ZM87.6869 90.6698C87.4638 90.8924 87.5887 91 88.0702 91C88.4628 91 88.5263 90.9549 88.3808 90.7798C88.1836 90.5427 87.8647 90.4922 87.6869 90.6698Z" fill="#78716C"/>
</svg>
